<svg xmlns="http://www.w3.org/2000/svg" xmlns:xlink="http://www.w3.org/1999/xlink" width="1920" zoomAndPan="magnify" viewBox="0 0 1440 809.999993" height="1080" preserveAspectRatio="xMidYMid meet" version="1.0"><defs><clipPath id="05047b917b"><path d="M 496.023438 0.125 L 1440 0.125 L 1440 241 L 496.023438 241 Z M 496.023438 0.125 " clip-rule="nonzero"/></clipPath><clipPath id="edab0878aa"><path d="M 0 0.125 L 716.933594 0.125 L 716.933594 241 L 0 241 Z M 0 0.125 " clip-rule="nonzero"/></clipPath></defs><g clip-path="url(#05047b917b)"><path fill="#fdd67a" d="M 1488.105469 0.125 L 1488.105469 117.785156 C 1480.746094 119.667969 1473.757812 122.910156 1467.734375 127.625 C 1435.824219 152.644531 1432.480469 208.0625 1394.152344 221.3125 C 1377.113281 227.191406 1357.695312 221.9375 1343.125 211.316406 C 1328.558594 200.707031 1318.15625 185.371094 1309.402344 169.628906 C 1299.234375 151.351562 1284.652344 128.75 1264.136719 132.785156 C 1252.496094 135.070312 1244.328125 145.96875 1240.578125 157.214844 C 1236.828125 168.464844 1236.371094 180.535156 1233.640625 192.074219 C 1227.277344 219.011719 1202.75 244.527344 1175.425781 239.96875 C 1148.117188 235.40625 1133.886719 205.582031 1124.765625 179.453125 C 1115.644531 153.324219 1103.375 123.222656 1076.625 116.074219 C 1045.058594 107.636719 1016.988281 136.585938 996.90625 162.363281 C 976.835938 188.140625 948.101562 216.738281 916.777344 207.398438 C 905.320312 203.988281 895.988281 195.820312 887.027344 187.917969 C 865.164062 168.621094 842.519531 149.089844 815.183594 138.9375 C 787.847656 128.789062 754.433594 129.832031 732.496094 149.023438 C 722.460938 157.804688 715.585938 169.550781 707.121094 179.855469 C 688.160156 202.917969 660.550781 218.699219 631.058594 223.335938 C 621.269531 224.878906 611.050781 225.191406 601.617188 222.171875 C 572.296875 212.78125 562.089844 177.335938 542.125 153.898438 C 530.324219 140.050781 514.015625 130.707031 496.414062 126.292969 L 496.414062 0.125 Z M 1488.105469 0.125 " fill-opacity="1" fill-rule="nonzero"/></g><g clip-path="url(#edab0878aa)"><path fill="#fdd67a" d="M 716.6875 0.125 L 716.6875 117.785156 C 709.332031 119.667969 702.339844 122.910156 696.316406 127.625 C 664.40625 152.644531 661.0625 208.0625 622.734375 221.3125 C 605.695312 227.191406 586.277344 221.9375 571.710938 211.316406 C 557.140625 200.707031 546.738281 185.371094 537.984375 169.628906 C 527.816406 151.351562 513.234375 128.75 492.71875 132.785156 C 481.078125 135.070312 472.910156 145.96875 469.160156 157.214844 C 465.410156 168.464844 464.953125 180.535156 462.222656 192.074219 C 455.859375 219.011719 431.332031 244.527344 404.007812 239.96875 C 376.699219 235.40625 362.46875 205.582031 353.347656 179.453125 C 344.226562 153.324219 331.957031 123.222656 305.210938 116.074219 C 273.640625 107.636719 245.570312 136.585938 225.488281 162.363281 C 205.417969 188.140625 176.683594 216.738281 145.363281 207.398438 C 133.902344 203.988281 124.570312 195.820312 115.609375 187.917969 C 93.746094 168.621094 71.101562 149.089844 43.765625 138.9375 C 16.429688 128.789062 -16.980469 129.832031 -38.921875 149.023438 C -48.957031 157.804688 -55.832031 169.550781 -64.296875 179.855469 C -83.257812 202.917969 -110.867188 218.699219 -140.359375 223.335938 C -150.148438 224.878906 -160.367188 225.191406 -169.800781 222.171875 C -199.121094 212.78125 -209.328125 177.335938 -229.292969 153.898438 C -241.09375 140.050781 -257.402344 130.707031 -275 126.292969 L -275 0.125 Z M 716.6875 0.125 " fill-opacity="1" fill-rule="nonzero"/></g></svg>