<svg xmlns="http://www.w3.org/2000/svg" xmlns:xlink="http://www.w3.org/1999/xlink" width="1920" zoomAndPan="magnify" viewBox="0 0 1440 809.999993" height="1080" preserveAspectRatio="xMidYMid meet" version="1.0"><defs><clipPath id="3fe225f023"><path d="M 0 0 L 765.726562 0 L 765.726562 223 L 0 223 Z M 0 0 " clip-rule="nonzero"/></clipPath><clipPath id="d93060d4aa"><path d="M 717.441406 0 L 1440 0 L 1440 135 L 717.441406 135 Z M 717.441406 0 " clip-rule="nonzero"/></clipPath><clipPath id="ec4fabad27"><path d="M 0 0 L 765.9375 0 L 765.9375 131 L 0 131 Z M 0 0 " clip-rule="nonzero"/></clipPath><clipPath id="6f0351b18c"><path d="M 0 0 L 750.878906 0 L 750.878906 26 L 0 26 Z M 0 0 " clip-rule="nonzero"/></clipPath></defs><path fill="#e2dcc2" d="M 1518.320312 -14.007812 L 1518.320312 101.699219 C 1511.085938 103.550781 1504.214844 106.738281 1498.289062 111.375 C 1466.914062 135.980469 1463.625 190.480469 1425.941406 203.507812 C 1409.1875 209.289062 1390.097656 204.125 1375.769531 193.679688 C 1361.445312 183.246094 1351.21875 168.164062 1342.609375 152.679688 C 1332.613281 134.707031 1318.277344 112.480469 1298.105469 116.449219 C 1286.65625 118.699219 1278.628906 129.414062 1274.941406 140.476562 C 1271.253906 151.539062 1270.804688 163.410156 1268.117188 174.753906 C 1261.859375 201.246094 1237.746094 226.339844 1210.878906 221.855469 C 1184.027344 217.371094 1170.035156 188.039062 1161.066406 162.34375 C 1152.101562 136.648438 1140.035156 107.046875 1113.734375 100.015625 C 1082.695312 91.71875 1055.097656 120.1875 1035.351562 145.539062 C 1015.613281 170.886719 987.363281 199.011719 956.566406 189.824219 C 945.296875 186.472656 936.125 178.441406 927.3125 170.667969 C 905.816406 151.691406 883.550781 132.484375 856.671875 122.5 C 829.792969 112.519531 796.941406 113.546875 775.371094 132.421875 C 765.503906 141.054688 758.746094 152.605469 750.417969 162.742188 C 731.777344 185.417969 704.628906 200.9375 675.628906 205.5 C 666.007812 207.015625 655.960938 207.324219 646.683594 204.355469 C 617.851562 195.117188 607.820312 160.261719 588.1875 137.210938 C 576.585938 123.59375 560.550781 114.40625 543.246094 110.0625 L 543.246094 -14.007812 Z M 1518.320312 -14.007812 " fill-opacity="1" fill-rule="nonzero"/><g clip-path="url(#3fe225f023)"><path fill="#e2dcc2" d="M 765.65625 -6.300781 L 765.65625 105.699219 C 758.65625 107.488281 752 110.574219 746.269531 115.0625 C 715.898438 138.875 712.714844 191.628906 676.242188 204.238281 C 660.027344 209.835938 641.546875 204.835938 627.679688 194.726562 C 613.8125 184.628906 603.914062 170.027344 595.582031 155.042969 C 585.90625 137.644531 572.027344 116.132812 552.503906 119.972656 C 541.425781 122.148438 533.652344 132.523438 530.082031 143.230469 C 526.511719 153.9375 526.078125 165.425781 523.480469 176.40625 C 517.421875 202.050781 494.082031 226.339844 468.078125 221.996094 C 442.085938 217.65625 428.542969 189.265625 419.863281 164.394531 C 411.183594 139.523438 399.503906 110.871094 374.050781 104.066406 C 344.003906 96.035156 317.292969 123.59375 298.179688 148.128906 C 279.078125 172.664062 251.730469 199.886719 221.921875 190.996094 C 211.015625 187.75 202.136719 179.976562 193.605469 172.453125 C 172.800781 154.085938 151.246094 135.492188 125.230469 125.832031 C 99.214844 116.167969 67.417969 117.164062 46.539062 135.433594 C 36.988281 143.789062 30.445312 154.96875 22.386719 164.78125 C 4.34375 186.730469 -21.933594 201.753906 -50.003906 206.167969 C -59.316406 207.632812 -69.042969 207.933594 -78.019531 205.058594 C -105.925781 196.117188 -115.640625 162.378906 -134.640625 140.070312 C -145.871094 126.886719 -161.390625 117.996094 -178.140625 113.792969 L -178.140625 -6.300781 Z M 765.65625 -6.300781 " fill-opacity="1" fill-rule="nonzero"/></g><g clip-path="url(#d93060d4aa)"><path fill="#e2dcc2" d="M 1885.003906 -148.664062 L 1885.003906 -10.167969 C 1876.347656 -7.953125 1868.121094 -4.140625 1861.03125 1.414062 C 1823.476562 30.863281 1819.539062 96.097656 1774.433594 111.691406 C 1754.382812 118.609375 1731.527344 112.429688 1714.382812 99.925781 C 1697.234375 87.4375 1684.992188 69.386719 1674.691406 50.855469 C 1662.726562 29.339844 1645.5625 2.734375 1621.417969 7.488281 C 1607.71875 10.179688 1598.105469 23.003906 1593.691406 36.246094 C 1589.277344 49.484375 1588.738281 63.695312 1585.527344 77.273438 C 1578.035156 108.984375 1549.171875 139.019531 1517.015625 133.652344 C 1484.875 128.285156 1468.125 93.175781 1457.394531 62.417969 C 1446.660156 31.660156 1432.21875 -3.769531 1400.738281 -12.183594 C 1363.585938 -22.117188 1330.550781 11.960938 1306.914062 42.304688 C 1283.292969 72.644531 1249.476562 106.308594 1212.613281 95.3125 C 1199.128906 91.300781 1188.148438 81.6875 1177.597656 72.382812 C 1151.871094 49.667969 1125.21875 26.679688 1093.046875 14.730469 C 1060.875 2.78125 1021.550781 4.011719 995.730469 26.601562 C 983.921875 36.9375 975.832031 50.761719 965.867188 62.894531 C 943.554688 90.039062 911.058594 108.613281 876.347656 114.074219 C 864.832031 115.890625 852.804688 116.257812 841.703125 112.707031 C 807.191406 101.648438 795.183594 59.925781 771.683594 32.339844 C 757.796875 16.035156 738.605469 5.042969 717.890625 -0.15625 L 717.890625 -148.664062 Z M 1885.003906 -148.664062 " fill-opacity="1" fill-rule="nonzero"/></g><g clip-path="url(#ec4fabad27)"><path fill="#e2dcc2" d="M 765.652344 -105.941406 L 765.652344 9.765625 C 758.421875 11.617188 751.546875 14.804688 745.625 19.441406 C 714.25 44.046875 710.960938 98.546875 673.277344 111.574219 C 656.523438 117.355469 637.429688 112.191406 623.105469 101.746094 C 608.777344 91.3125 598.550781 76.230469 589.945312 60.746094 C 579.949219 42.773438 565.609375 20.546875 545.4375 24.515625 C 533.992188 26.765625 525.960938 37.480469 522.273438 48.542969 C 518.585938 59.605469 518.136719 71.476562 515.449219 82.820312 C 509.195312 109.3125 485.078125 134.40625 458.214844 129.921875 C 431.359375 125.4375 417.371094 96.105469 408.402344 70.410156 C 399.433594 44.714844 387.367188 15.113281 361.070312 8.082031 C 330.027344 -0.214844 302.429688 28.253906 282.683594 53.605469 C 262.949219 78.953125 234.695312 107.078125 203.898438 97.890625 C 192.632812 94.539062 183.457031 86.507812 174.644531 78.734375 C 153.148438 59.757812 130.882812 40.550781 104.003906 30.566406 C 77.128906 20.585938 44.273438 21.613281 22.703125 40.488281 C 12.835938 49.121094 6.078125 60.671875 -2.246094 70.808594 C -20.890625 93.484375 -48.039062 109.003906 -77.035156 113.566406 C -86.660156 115.082031 -96.707031 115.390625 -105.984375 112.421875 C -134.8125 103.183594 -144.847656 68.328125 -164.480469 45.277344 C -176.082031 31.660156 -192.117188 22.472656 -209.421875 18.128906 L -209.421875 -105.941406 Z M 765.652344 -105.941406 " fill-opacity="1" fill-rule="nonzero"/></g><g clip-path="url(#6f0351b18c)"><path fill="#e2dcc2" d="M 750.59375 -210.636719 L 750.59375 -94.925781 C 743.363281 -93.074219 736.488281 -89.890625 730.566406 -85.25 C 699.191406 -60.648438 695.902344 -6.144531 658.21875 6.882812 C 641.464844 12.664062 622.371094 7.5 608.046875 -2.945312 C 593.71875 -13.378906 583.492188 -28.460938 574.886719 -43.945312 C 564.890625 -61.917969 550.550781 -84.144531 530.378906 -80.175781 C 518.933594 -77.925781 510.902344 -67.210938 507.214844 -56.148438 C 503.527344 -45.089844 503.078125 -33.214844 500.390625 -21.871094 C 494.136719 4.621094 470.019531 29.714844 443.152344 25.230469 C 416.300781 20.746094 402.308594 -8.585938 393.34375 -34.28125 C 384.375 -59.980469 372.308594 -89.582031 346.011719 -96.609375 C 314.96875 -104.910156 287.371094 -76.4375 267.625 -51.089844 C 247.890625 -25.738281 219.636719 2.386719 188.839844 -6.800781 C 177.574219 -10.152344 168.398438 -18.183594 159.585938 -25.957031 C 138.089844 -44.933594 115.824219 -64.140625 88.945312 -74.125 C 62.070312 -84.105469 29.214844 -83.078125 7.644531 -64.207031 C -2.222656 -55.570312 -8.980469 -44.023438 -17.304688 -33.882812 C -35.949219 -11.207031 -63.097656 4.3125 -92.09375 8.875 C -101.71875 10.390625 -111.765625 10.699219 -121.042969 7.730469 C -149.871094 -1.507812 -159.90625 -36.363281 -179.539062 -59.414062 C -191.140625 -73.03125 -207.175781 -82.21875 -224.480469 -86.5625 L -224.480469 -210.636719 Z M 750.59375 -210.636719 " fill-opacity="1" fill-rule="nonzero"/></g></svg>